Source Used

Predator.Ultimate.Hunter.Edition.1987.720p.BluRay.x264-Rx (4.88GB)

(Thanks)

General

Complete name                    : Predator Ultimate Hunter Edition 1987 720p BRRip x264-Jucified (700MB).mp4
Format                           : MPEG-4
Format profile                   : Base Media
Codec ID                         : isom
File size                        : 699 MiB
Duration                         : 1h 46mn
Overall bit rate                 : 917 Kbps

Video

Format                           : AVC
Format/Info                      : Advanced Video Codec
Format profile                   : High@L4.1
Format settings, CABAC           : Yes
Format settings, ReFrames        : 5 frames
Codec ID                         : avc1
Codec ID/Info                    : Advanced Video Coding
Duration                         : 1h 46mn
Bit rate mode                    : Variable
Bit rate                         : 790 Kbps
Maximum bit rate                 : 2 704 Kbps
Width                            : 1 280 pixels
Height                           : 688 pixels
Display aspect ratio             : 1.860
Frame rate mode                  : Constant
Frame rate                       : 23.976 fps
Resolution                       : 24 bits
Colorimetry                      : 4:2:0
Scan type                        : Progressive
Bits/(Pixel*Frame)               : 0.037
Stream size                      : 601 MiB (86%)

Audio

Format                           : AAC
Format/Info                      : Advanced Audio Codec
Format version                   : Version 4
Format profile                   : LC
Format settings, SBR             : No
Codec ID                         : 40
Duration                         : 1h 46mn
Bit rate mode                    : Variable
Bit rate                         : 125 Kbps
Maximum bit rate                 : 135 Kbps
Channel(s)                       : 2 channels
Channel positions                : L R
Sampling rate                    : 48.0 KHz
Resolution                       : 16 bits
Stream size                      : 95.3 MiB (14%)

-----------------------------------------------------------------------------------

Please if you like my uploads please take a second and click the + icon above. I have people purposely hitting the minus before anyone downloads from me. :(

Please seed and enjoy :)

-=[ JohnPc666 ]=-